<svg aria-hidden="true" style="position: absolute; width: 0; height: 0; overflow: hidden;" version="1.1" xmlns="http://www.w3.org/2000/svg" xmlns:xlink="http://www.w3.org/1999/xlink">
<defs>
<symbol id="add" viewBox="0 0 32 32">
<path d="M0 16c0-8.838 7.162-16 16-16s16 7.162 16 16c0 8.837-7.163 16-16 16s-16-7.163-16-16zM16 23c0.831 0 1.5-0.669 1.5-1.5v-4h4c0.831 0 1.5-0.669 1.5-1.5s-0.669-1.5-1.5-1.5h-4v-4c0-0.831-0.669-1.5-1.5-1.5s-1.5 0.669-1.5 1.5v4h-4c-0.831 0-1.5 0.669-1.5 1.5s0.669 1.5 1.5 1.5h4v4c0 0.831 0.669 1.5 1.5 1.5z"></path>
</symbol>
<symbol id="arrow-left" viewBox="0 0 32 32">
<path d="M0.586 14.588l8-8c0.781-0.781 2.047-0.781 2.828 0s0.781 2.047 0 2.828l-4.583 4.584h23.169c1.106 0 2 0.894 2 2s-0.894 2-2 2h-23.169l4.586 4.586c0.781 0.781 0.781 2.047 0 2.828s-2.046 0.782-2.828 0l-8-8c-0.785-0.783-0.785-2.046-0.003-2.827z"></path>
</symbol>
<symbol id="cart" viewBox="0 0 36 32">
<path d="M6 0c0.719 0 1.338 0.512 1.475 1.219l0.094 0.781h26.294c1.269 0 2.281 1.266 1.925 2.541l-3.375 12.002c-0.244 0.863-1.031 1.456-1.925 1.456h-19.819l0.575 3h19.256c0.831 0 1.5 0.669 1.5 1.5s-0.669 1.5-1.5 1.5h-20.556c-0.662 0-1.281-0.512-1.419-1.219l-3.766-19.781h-3.259c-0.828 0-1.5-0.672-1.5-1.5s0.672-1.5 1.5-1.5h4.5zM8 29c0-1.656 1.344-3 3-3s3 1.344 3 3c0 1.656-1.344 3-3 3s-3-1.344-3-3zM32 29c0 1.656-1.344 3-3 3s-3-1.344-3-3c0-1.656 1.344-3 3-3s3 1.344 3 3z"></path>
</symbol>
<symbol id="category" viewBox="0 0 32 32">
<path d="M14.667 9.333c0 2.946-2.388 5.333-5.333 5.333s-5.333-2.388-5.333-5.333c0-2.946 2.388-5.333 5.333-5.333s5.333 2.388 5.333 5.333z"></path>
<path d="M14.667 22.667c0 2.946-2.388 5.333-5.333 5.333s-5.333-2.388-5.333-5.333c0-2.946 2.388-5.333 5.333-5.333s5.333 2.388 5.333 5.333z"></path>
<path d="M28 9.333c0 2.946-2.388 5.333-5.333 5.333s-5.333-2.388-5.333-5.333c0-2.946 2.388-5.333 5.333-5.333s5.333 2.388 5.333 5.333z"></path>
<path d="M28 22.667c0 2.946-2.388 5.333-5.333 5.333s-5.333-2.388-5.333-5.333c0-2.946 2.388-5.333 5.333-5.333s5.333 2.388 5.333 5.333z"></path>
</symbol>
<symbol id="consultation" viewBox="0 0 32 32">
<path fill="none" stroke="#ff7800" style="stroke: var(--color1, #ff7800)" stroke-linejoin="round" stroke-linecap="round" stroke-miterlimit="10" stroke-width="2" d="M8 8h5"></path>
<path fill="none" stroke="#ff7800" style="stroke: var(--color1, #ff7800)" stroke-linejoin="round" stroke-linecap="round" stroke-miterlimit="10" stroke-width="2" d="M8 12h2"></path>
<path fill="none" stroke="#ff7800" style="stroke: var(--color1, #ff7800)" stroke-linejoin="round" stroke-linecap="round" stroke-miterlimit="10" stroke-width="2" d="M5 3c-1.1 0-2 0.9-2 2v17l7.7-5h8.3c1.1 0 2-0.9 2-2v-10c0-1.1-0.9-2-2-2h-14z"></path>
<path fill="none" stroke="#ff7800" style="stroke: var(--color1, #ff7800)" stroke-linejoin="round" stroke-linecap="round" stroke-miterlimit="10" stroke-width="2" d="M21 10h6c1.1 0 2 0.9 2 2v17l-7.7-5h-8.3c-1.1 0-2-0.9-2-2v-5"></path>
</symbol>
<symbol id="home" viewBox="0 0 36 32">
<path d="M35.987 15.969c0 1.125-0.938 2.006-2 2.006h-2l0.044 10.006c0 0.175-0.013 0.337-0.031 0.506v1.012c0 1.381-1.119 2.5-2.5 2.5h-1c-0.069 0-0.137-0.056-0.206-0.006-0.087-0.050-0.175 0.006-0.262 0.006h-3.531c-1.381 0-2.5-1.119-2.5-2.5v-5.5c0-1.106-0.894-2-2-2h-4c-1.106 0-2 0.894-2 2v5.5c0 1.381-1.119 2.5-2.5 2.5h-3.494c-0.094 0-0.188-0.006-0.281-0.012-0.075 0.006-0.15 0.012-0.225 0.012h-1c-1.381 0-2.5-1.119-2.5-2.5v-7c0-0.056 0.002-0.119 0.006-0.175v-4.35h-2.002c-1.127 0-2.003-0.881-2.003-2.006 0-0.563 0.188-1.063 0.626-1.5l16.024-13.968c0.438-0.438 0.938-0.501 1.375-0.501s0.938 0.125 1.319 0.438l15.956 14.030c0.5 0.438 0.756 0.938 0.688 1.5v0z"></path>
</symbol>
<symbol id="instagram" viewBox="0 0 28 32">
<path d="M14.006 8.813c-3.975 0-7.181 3.206-7.181 7.181s3.206 7.181 7.181 7.181 7.181-3.206 7.181-7.181-3.206-7.181-7.181-7.181zM14.006 20.663c-2.569 0-4.669-2.094-4.669-4.669s2.094-4.669 4.669-4.669 4.669 2.094 4.669 4.669-2.1 4.669-4.669 4.669zM23.156 8.519c0 0.931-0.75 1.675-1.675 1.675-0.931 0-1.675-0.75-1.675-1.675s0.75-1.675 1.675-1.675 1.675 0.75 1.675 1.675zM27.913 10.219c-0.106-2.244-0.619-4.231-2.262-5.869-1.637-1.638-3.625-2.15-5.869-2.263-2.313-0.131-9.244-0.131-11.556 0-2.237 0.106-4.225 0.619-5.869 2.256s-2.15 3.625-2.263 5.869c-0.131 2.313-0.131 9.244 0 11.556 0.106 2.244 0.619 4.231 2.263 5.869s3.625 2.15 5.869 2.262c2.313 0.131 9.244 0.131 11.556 0 2.244-0.106 4.231-0.619 5.869-2.262 1.637-1.637 2.15-3.625 2.262-5.869 0.131-2.313 0.131-9.238 0-11.55zM24.925 24.25c-0.488 1.225-1.431 2.169-2.663 2.663-1.844 0.731-6.219 0.563-8.256 0.563s-6.419 0.163-8.256-0.563c-1.225-0.488-2.169-1.431-2.663-2.663-0.731-1.844-0.563-6.219-0.563-8.256s-0.163-6.419 0.563-8.256c0.487-1.225 1.431-2.169 2.663-2.662 1.844-0.731 6.219-0.563 8.256-0.563s6.419-0.162 8.256 0.563c1.225 0.487 2.169 1.431 2.663 2.662 0.731 1.844 0.563 6.219 0.563 8.256s0.169 6.419-0.563 8.256z"></path>
</symbol>
<symbol id="login" viewBox="0 0 32 32">
<path d="M21.544 14.906l-9.006-8.5c-0.431-0.408-1.075-0.521-1.625-0.284-0.55 0.241-0.906 0.778-0.906 1.378v4.5h-8.005c-1.106 0-2.001 0.894-2.001 2v4c0 1.105 0.896 2 2.001 2h8.006v4.5c0 0.599 0.357 1.141 0.907 1.378 0.55 0.236 1.189 0.124 1.625-0.287l9.006-8.5c0.598-0.566 0.598-1.616-0.002-2.185zM26 2h-4c-1.104 0-2 0.896-2 2s0.896 2 2 2h4c1.104 0 2 0.896 2 2v16c0 1.104-0.896 2-2 2h-4c-1.104 0-2 0.896-2 2s0.896 2 2 2h4c3.314 0 6-2.686 6-6v-16c0-3.314-2.688-6-6-6z"></path>
</symbol>
<symbol id="pets" viewBox="0 0 36 32">
<path d="M20.163 12c-1.262 0-6.675 0.125-10.162 5.375v-5.375c0-3.313-2.688-6-6-6-1.101 0-2 0.9-2 2s0.899 2 2 2 2 0.899 2 2v16c0 2.203 1.797 4 4 4h11c0.555 0 1-0.445 1-0.944v-1.056c0-1.101-0.899-2-2-2h-2l8-6v9c0 0.555 0.445 1 1 1h2c0.555 0 1-0.445 1-1v-12.881c-0.641 0.164-1.305 0.281-2 0.281-3.863 0-7.094-2.75-7.837-6.4zM30 6h-4l-4-4v8.4c0 3.313 2.688 5.944 6 5.944s6-2.631 6-5.944v-8.4l-4 4zM25.5 11c-0.555 0-1-0.445-1-1s0.445-1 1-1 1 0.445 1 1-0.444 1-1 1zM30.5 11c-0.555 0-1-0.445-1-1s0.445-1 1-1 1 0.445 1 1-0.444 1-1 1z"></path>
</symbol>
<symbol id="phone" viewBox="0 0 32 32">
<path d="M1.183 21.95l6.781-2.907c0.799-0.346 1.736-0.113 2.278 0.561l2.756 3.364c4.328-2.125 7.844-5.644 9.969-9.969l-3.363-2.752c-0.672-0.549-0.901-1.481-0.561-2.279l2.907-6.781c0.381-0.869 1.319-1.345 2.237-1.132l6.3 1.453c0.891 0.203 1.514 0.987 1.514 1.904 0 15.769-12.825 28.594-28.594 28.594-0.917 0-1.699-0.623-1.903-1.514l-1.453-6.3c-0.21-0.916 0.264-1.866 1.133-2.241z"></path>
</symbol>
<symbol id="reviews" viewBox="0 0 32 32">
<path d="M16 2c-8.838 0-15.998 5.819-15.998 13 0 3.102 1.334 5.936 3.561 8.169-0.781 3.148-3.392 5.954-3.423 5.986-0.141 0.141-0.18 0.358-0.094 0.546 0.078 0.187 0.251 0.3 0.455 0.3 4.141 0 7.194-1.985 8.787-3.212 2.037 0.768 4.313 1.212 6.713 1.212 8.838 0 15.944-5.821 15.944-13s-7.106-13-15.944-13z"></path>
</symbol>
<symbol id="search" viewBox="0 0 32 32">
<path d="M31.269 27.731l-7.481-7.481c1.701-2.526 2.541-5.681 2.091-9.044-0.766-5.719-5.454-10.374-11.179-11.099-8.512-1.077-15.669 6.080-14.592 14.592 0.725 5.728 5.38 10.419 11.1 11.181 3.362 0.449 6.519-0.39 9.044-2.091l7.481 7.481c0.976 0.976 2.559 0.976 3.536 0 0.975-0.977 0.975-2.565 0-3.54zM4.944 13c0-4.411 3.589-8 8-8s8 3.589 8 8c0 4.411-3.589 8-8 8s-8-3.587-8-8z"></path>
</symbol>
<symbol id="star" viewBox="0 0 36 32">
<path d="M23.825 9.394l8.981 1.325c0.744 0.106 1.369 0.631 1.606 1.35 0.237 0.725 0.044 1.512-0.494 2.050l-6.512 6.387 1.538 9.162c0.125 0.75-0.181 1.512-0.806 1.956-0.619 0.444-1.438 0.5-2.106 0.144l-8.025-4.281-8.019 4.281c-0.675 0.356-1.494 0.3-2.112-0.144s-0.931-1.206-0.8-1.956l1.537-9.163-6.514-6.387c-0.538-0.537-0.729-1.325-0.493-2.050 0.236-0.719 0.859-1.244 1.608-1.35l8.974-1.325 4.025-8.271c0.331-0.689 1.031-1.126 1.794-1.126 0.769 0 1.469 0.437 1.8 1.126l4.019 8.271z"></path>
</symbol>
<symbol id="telegram" viewBox="0 0 31 32">
<path d="M15.5 0.5c-8.56 0-15.5 6.94-15.5 15.5s6.94 15.5 15.5 15.5 15.5-6.94 15.5-15.5-6.94-15.5-15.5-15.5zM22.684 11.041c-0.233 2.451-1.243 8.399-1.756 11.144-0.217 1.162-0.645 1.551-1.059 1.589-0.9 0.083-1.584-0.595-2.455-1.166-1.364-0.894-2.135-1.451-3.459-2.324-1.53-1.008-0.538-1.563 0.334-2.469 0.228-0.237 4.194-3.844 4.271-4.172 0.010-0.041 0.019-0.194-0.072-0.274s-0.224-0.053-0.321-0.031q-0.205 0.047-6.538 4.321-0.928 0.637-1.681 0.621c-0.553-0.012-1.618-0.313-2.409-0.57-0.971-0.316-1.742-0.482-1.675-1.018q0.053-0.419 1.153-0.856 6.778-2.953 9.039-3.894c4.305-1.79 5.199-2.101 5.782-2.112 0.128-0.002 0.415 0.030 0.601 0.18 0.12 0.105 0.201 0.251 0.22 0.417l0 0.003c0.021 0.127 0.033 0.273 0.033 0.421 0 0.067-0.002 0.133-0.007 0.198l0-0.009z"></path>
</symbol>
<symbol id="whatsapp" viewBox="0 0 28 32">
<path d="M23.806 6.069c-2.619-2.625-6.106-4.069-9.813-4.069-7.65 0-13.875 6.225-13.875 13.875 0 2.444 0.637 4.831 1.85 6.938l-1.969 7.188 7.356-1.931c2.025 1.106 4.306 1.688 6.631 1.688h0.006c7.644 0 14.006-6.225 14.006-13.875 0-3.706-1.575-7.188-4.194-9.813zM13.994 27.419c-2.075 0-4.106-0.556-5.875-1.606l-0.419-0.25-4.362 1.144 1.162-4.256-0.275-0.438c-1.156-1.837-1.763-3.956-1.763-6.137 0-6.356 5.175-11.531 11.538-11.531 3.081 0 5.975 1.2 8.15 3.381s3.512 5.075 3.506 8.156c0 6.362-5.306 11.537-11.662 11.537zM20.319 18.781c-0.344-0.175-2.050-1.012-2.369-1.125-0.319-0.119-0.55-0.175-0.781 0.175s-0.894 1.125-1.1 1.363c-0.2 0.231-0.406 0.262-0.75 0.087-2.037-1.019-3.375-1.819-4.719-4.125-0.356-0.613 0.356-0.569 1.019-1.894 0.113-0.231 0.056-0.431-0.031-0.606s-0.781-1.881-1.069-2.575c-0.281-0.675-0.569-0.581-0.781-0.594-0.2-0.012-0.431-0.012-0.662-0.012s-0.606 0.088-0.925 0.431c-0.319 0.35-1.213 1.188-1.213 2.894s1.244 3.356 1.412 3.587c0.175 0.231 2.444 3.731 5.925 5.238 2.2 0.95 3.063 1.031 4.162 0.869 0.669-0.1 2.050-0.837 2.337-1.65s0.288-1.506 0.2-1.65c-0.081-0.156-0.313-0.244-0.656-0.413z"></path>
</symbol>
<symbol id="cart1" viewBox="0 0 36 32">
<path d="M6 0c0.719 0 1.338 0.512 1.475 1.219l0.094 0.781h26.294c1.269 0 2.281 1.266 1.925 2.541l-3.375 12.002c-0.244 0.863-1.031 1.456-1.925 1.456h-19.819l0.575 3h19.256c0.831 0 1.5 0.669 1.5 1.5s-0.669 1.5-1.5 1.5h-20.556c-0.662 0-1.281-0.512-1.419-1.219l-3.766-19.781h-3.259c-0.828 0-1.5-0.672-1.5-1.5s0.672-1.5 1.5-1.5h4.5zM8 29c0-1.656 1.344-3 3-3s3 1.344 3 3c0 1.656-1.344 3-3 3s-3-1.344-3-3zM32 29c0 1.656-1.344 3-3 3s-3-1.344-3-3c0-1.656 1.344-3 3-3s3 1.344 3 3z"></path>
</symbol>
</defs>
</svg>
